<svg xmlns="http://www.w3.org/2000/svg" viewBox="0 0 24 24" width="24" height="24">
  <path stroke-width="1.6" stroke-linecap="round" stroke-linejoin="round" d="m7.5 4.27 9 5.15M21 16V8a2 2 0 0 0-1-1.73l-7-4a2 2 0 0 0-2 0l-7 4A2 2 0 0 0 3 8v8a2 2 0 0 0 1 1.73l7 4a2 2 0 0 0 2 0l7-4A2 2 0 0 0 21 16z" class="transparent-fill foreground-stroke"></path>
  <path stroke-width="1.6" stroke-linecap="round" stroke-linejoin="round" d="M3.27 6.96 12 12.01l8.73-5.05M12 22.08V12" class="transparent-fill foreground-stroke"></path>
</svg>