<svg xmlns="http://www.w3.org/2000/svg" width="100%" height="auto" viewBox="0 0 500 500" version="1.1" preserveAspectRatio="xMidYMid meet" style="max-width: 100%; max-height: 70vh;">
	<rect width="100%" height="100%" fill="white"/>
	<path d="M 0 250.002 L 0 500.004 250.250 499.752 L 500.500 499.500 500.752 249.750 L 501.004 0 250.502 0 L 0 0 0 250.002 M 0.492 250.500 C 0.492 388, 0.608 444.101, 0.750 375.170 C 0.892 306.238, 0.892 193.738, 0.750 125.170 C 0.608 56.601, 0.492 113, 0.492 250.500 M 359.500 60.399 C 353.376 62.336, 350.149 64.275, 342.046 70.888 C 337.946 74.233, 332.661 77.765, 330.300 78.735 C 327.939 79.706, 326.006 80.817, 326.004 81.205 C 326.002 81.592, 327.575 82.205, 329.500 82.566 C 331.425 82.927, 333 83.597, 333 84.054 C 333 85.915, 321.290 97.365, 316.715 99.978 L 311.807 102.781 317.653 103.459 L 323.500 104.137 323.187 143.319 C 322.969 170.602, 323.220 183.677, 324.015 186.376 C 324.642 188.508, 327.258 192.500, 329.828 195.248 L 334.500 200.244 334.570 210.372 C 334.621 217.755, 335.115 221.555, 336.393 224.392 C 337.978 227.912, 338.293 228.135, 339.701 226.728 C 340.977 225.452, 341.054 224.593, 340.128 221.937 C 339.508 220.158, 339 215.257, 339 211.047 C 339 202.247, 340.569 199.151, 350.389 188.580 C 354.971 183.648, 355.720 182.345, 354.877 180.769 C 354.320 179.729, 353.449 179.018, 352.942 179.189 C 351.721 179.601, 338 195.255, 338 196.237 C 338 196.657, 337.325 197, 336.500 197 C 335.675 197, 335 196.409, 335 195.687 C 335 194.965, 333.683 193.112, 332.073 191.570 C 330.463 190.027, 328.652 187.575, 328.050 186.120 C 326.783 183.062, 327.050 105.823, 328.339 102.468 C 329.060 100.589, 328.794 100.463, 324.810 100.799 L 320.500 101.162 324.115 98.637 C 326.103 97.248, 330.048 93.161, 332.882 89.556 C 335.715 85.950, 338.814 82.981, 339.767 82.958 C 340.720 82.935, 343.075 82.007, 345 80.897 C 346.925 79.786, 347.600 79.167, 346.500 79.521 C 343.467 80.497, 334 81.364, 334 80.666 C 334 80.328, 335.291 79.384, 336.869 78.568 C 338.447 77.752, 342.160 74.987, 345.119 72.423 C 357.833 61.411, 373.845 58.950, 382.948 66.609 C 385.226 68.527, 387.300 69.228, 391.243 69.414 C 397.895 69.728, 402.994 72.144, 407.477 77.106 C 412.024 82.139, 411.955 83.439, 407.250 81.410 C 400.420 78.465, 396.711 77.801, 389.067 78.157 C 383.815 78.402, 380.735 79.061, 379 80.311 L 376.500 82.112 379.500 81.306 C 384.101 80.070, 400.221 80.375, 402.500 81.741 C 404.280 82.808, 404.061 82.943, 400.500 82.975 C 390.713 83.063, 382.662 88.078, 381.546 94.781 C 380.833 99.064, 382.987 107.223, 385.591 110.101 C 388.620 113.448, 386.355 113.250, 382.456 109.827 C 377.992 105.908, 376.011 101.618, 375.970 95.782 C 375.943 92.095, 375.781 91.772, 374.803 93.459 C 374.178 94.536, 373.667 97.326, 373.667 99.658 C 373.667 107.685, 381.730 115.794, 391.491 117.582 L 395.482 118.313 392.402 114.805 C 388.129 109.938, 384.562 102.208, 384.553 97.793 C 384.543 92.947, 387.650 88.850, 392.596 87.187 C 396.785 85.779, 410.126 85.954, 413.409 87.460 C 415.138 88.253, 415.255 88.024, 414.653 85.013 C 412.636 74.931, 402.883 67.257, 391.857 67.076 C 388.905 67.028, 387.022 66.501, 386.688 65.630 C 386.399 64.876, 383.788 63.076, 380.885 61.630 C 374.930 58.662, 366.521 58.178, 359.500 60.399 M 177.500 67.790 C 174.860 69.295, 171.024 69.500, 145.500 69.500 C 123.043 69.500, 115.759 69.188, 113.218 68.115 C 109.250 66.441, 108.626 66.885, 109.972 70.426 C 110.631 72.160, 111 93.038, 111 128.615 C 111 174.272, 111.248 184.578, 112.403 186.800 C 114.586 191.003, 118.739 195.713, 129.291 205.949 C 138.562 214.944, 139.114 215.314, 140.765 213.642 C 142.415 211.971, 141.909 211.314, 130.398 200.192 C 123.742 193.762, 117.550 187.051, 116.638 185.281 C 115.163 182.416, 114.954 176.024, 114.740 127.281 L 114.500 72.500 145 72.500 L 175.500 72.500 175.217 126.864 C 174.907 186.344, 175.146 183.944, 168.883 190.552 C 166.263 193.318, 166.127 193.788, 167.438 195.552 C 168.837 197.435, 168.986 197.384, 171.899 194 C 178.806 185.979, 178.444 189.381, 179.038 127 C 179.334 95.925, 179.949 69.487, 180.404 68.250 C 181.383 65.592, 181.362 65.589, 177.500 67.790 M 366 71.256 C 363.223 72.110, 362.913 72.426, 364.500 72.786 C 365.600 73.036, 367.388 73.861, 368.473 74.620 C 371.110 76.465, 374.452 76.365, 376.090 74.392 C 377.224 73.025, 377.138 72.574, 375.521 71.392 C 373.320 69.782, 370.907 69.748, 366 71.256 M 371.192 73.075 C 371.389 73.666, 371.978 74.150, 372.500 74.150 C 373.022 74.150, 373.611 73.666, 373.808 73.075 C 374.005 72.484, 373.417 72, 372.500 72 C 371.583 72, 370.995 72.484, 371.192 73.075 M 391.813 72.683 C 392.534 72.972, 393.397 72.936, 393.729 72.604 C 394.061 72.272, 393.471 72.036, 392.417 72.079 C 391.252 72.127, 391.015 72.364, 391.813 72.683 M 124.452 81.882 C 124.203 82.130, 124.010 90.471, 124.022 100.417 C 124.048 121.505, 124.366 122.611, 133.475 133.265 C 138.077 138.647, 139.539 139.797, 140.630 138.892 C 142.835 137.062, 142.295 135.875, 135.989 128.700 C 132.702 124.960, 129.778 120.910, 129.490 119.700 C 129.203 118.490, 128.862 110.525, 128.734 102 L 128.500 86.500 131 86.744 C 132.385 86.879, 134.883 88.549, 136.601 90.488 C 139.664 93.945, 139.723 93.964, 141.488 92.013 C 143.222 90.097, 143.156 89.921, 139.255 86.020 C 136.954 83.718, 134.223 81.965, 132.868 81.919 C 131.565 81.874, 129.241 81.746, 127.702 81.634 C 126.163 81.521, 124.700 81.633, 124.452 81.882 M 156.372 82.065 C 153.337 82.966, 150.911 85.450, 137.590 101.291 C 132.874 106.900, 131.933 108.633, 132.190 111.246 C 132.497 114.376, 132.583 114.312, 140.500 105.004 C 152.744 90.611, 156.259 87.128, 159.250 86.427 L 162 85.783 162 96.927 C 162 105.609, 162.365 108.628, 163.654 110.595 C 166.314 114.654, 166.968 111.836, 166.985 96.250 C 166.999 83.345, 166.835 81.999, 165.250 81.986 C 164.287 81.979, 162.600 81.784, 161.500 81.554 C 160.400 81.324, 158.093 81.553, 156.372 82.065 M 342.466 90.415 C 340.797 91.730, 337.422 93.863, 334.966 95.154 C 330.723 97.383, 330.635 97.516, 333.192 97.811 C 336.466 98.189, 340.004 95.995, 343.489 91.426 C 346.583 87.369, 346.470 87.257, 342.466 90.415 M 349.832 92.647 C 347.355 98.246, 347.665 106.322, 350.522 110.658 L 352.395 113.500 353.194 109.690 C 353.634 107.595, 354.461 105.007, 355.032 103.940 C 355.675 102.738, 355.702 102, 355.103 102 C 354.570 102, 353.849 102.900, 353.500 104 C 353.151 105.100, 352.446 106, 351.933 106 C 350.660 106, 350.747 92.342, 352.035 89.934 C 352.605 88.870, 352.804 88, 352.479 88 C 352.154 88, 350.963 90.091, 349.832 92.647 M 361.110 102 C 361.042 106.890, 361.610 109.769, 363.405 113.624 C 365.750 118.659, 375.969 130, 378.162 130 C 379.873 130, 378.520 119.959, 376.119 114.853 L 374.073 110.500 374.604 114.500 C 374.896 116.700, 375.377 119.850, 375.673 121.500 L 376.210 124.500 372.253 120.692 C 367.385 116.006, 364.426 110.244, 362.598 101.885 L 361.201 95.500 361.110 102 M 148.104 100.375 C 146.935 101.783, 147.338 102.740, 151.128 107.566 C 162.147 121.597, 161.441 119.706, 162 136.671 C 162.461 150.659, 163.045 154.288, 164.587 152.746 C 167.113 150.221, 167.829 129.073, 165.637 121.788 C 164.087 116.639, 160.137 110.554, 153.803 103.558 C 149.903 99.250, 149.311 98.920, 148.104 100.375 M 336.250 101.703 C 334.590 102.318, 334.497 133.260, 336.141 137.975 C 338.266 144.072, 339.400 138.649, 339.167 123.500 L 338.951 109.500 344.942 116 C 348.238 119.575, 350.948 122.838, 350.967 123.250 C 351.048 125.087, 352.813 123.758, 353.237 121.541 C 353.611 119.585, 352.288 117.486, 346.782 111.291 C 337.915 101.315, 337.736 101.152, 336.250 101.703 M 356.883 111.250 C 356.819 111.938, 356.598 115.080, 356.393 118.234 C 355.869 126.264, 354.587 128.656, 345.500 138.548 C 341.100 143.339, 336.953 148.212, 336.285 149.379 C 334.680 152.183, 334.564 181.451, 336.141 185.975 C 338.167 191.786, 339.052 187.043, 339.282 169.150 L 339.500 152.238 347.604 143.369 C 352.061 138.491, 356.674 132.605, 357.854 130.290 C 360.028 126.025, 360.620 119.348, 359.375 113.125 C 358.760 110.048, 357.111 108.808, 356.883 111.250 M 141.770 116.750 L 139.166 119.500 141.901 122.744 L 144.636 125.989 147.417 123.087 L 150.197 120.185 147.910 117.093 C 146.653 115.392, 145.343 114, 144.999 114 C 144.655 114, 143.202 115.237, 141.770 116.750 M 143.597 118.844 C 143.251 119.404, 143.455 120.163, 144.050 120.531 C 145.588 121.481, 146.580 120.180, 145.296 118.896 C 144.578 118.178, 144.019 118.161, 143.597 118.844 M 382.004 118.389 C 382.006 118.450, 383.131 120.714, 384.504 123.419 C 386.973 128.287, 387 128.614, 387 154.104 C 387 169.878, 386.588 180.954, 385.937 182.666 C 385.352 184.203, 379.041 191.352, 371.911 198.552 C 359.415 211.173, 359.016 211.705, 360.830 213.346 C 362.635 214.980, 363.203 214.542, 374.668 202.680 C 381.244 195.877, 387.496 188.554, 388.562 186.406 C 390.338 182.827, 390.500 180.195, 390.500 154.965 C 390.500 130.272, 390.308 127.005, 388.641 123.311 C 387.378 120.511, 386.016 119.045, 384.391 118.734 C 383.076 118.483, 382.002 118.327, 382.004 118.389 M 144.187 139.013 L 130.891 153.998 130.824 161.113 C 130.757 168.146, 130.804 168.274, 134.868 172.338 C 138.692 176.163, 139.094 176.334, 140.633 174.796 C 142.171 173.257, 141.928 172.739, 137.143 167.371 C 134.314 164.198, 132 161.242, 132 160.804 C 132 160.365, 136.838 154.553, 142.750 147.887 C 159.041 129.520, 159 129.570, 158.927 128.500 C 158.576 123.331, 157.284 124.253, 144.187 139.013 M 361.429 130.429 C 360.817 132.867, 361.496 133.953, 367.315 139.842 C 373.654 146.258, 373.904 146.700, 374.176 152 C 374.472 157.771, 373.390 161.248, 371.998 158.996 C 371.482 158.162, 369.869 159.265, 366.873 162.501 C 361.010 168.833, 360.473 169.902, 362.258 171.686 C 363.558 172.986, 364.312 172.501, 368.616 167.593 C 371.302 164.531, 373.837 162.020, 374.250 162.013 C 374.663 162.006, 375.007 166.387, 375.015 171.750 C 375.024 177.113, 375.448 182.160, 375.958 182.966 C 377.881 186.006, 379 178.784, 379 163.336 C 379 144.854, 378.773 144.198, 369.045 134.545 L 362.120 127.673 361.429 130.429 M 123.514 132.108 C 122.646 136.781, 123.318 183.656, 124.267 184.602 C 126.387 186.717, 126.923 181.523, 127.050 157.623 C 127.167 135.674, 126.957 131.529, 125.666 130.237 C 124.303 128.875, 124.078 129.071, 123.514 132.108 M 148.192 146.023 C 146.986 147.993, 147.465 148.765, 154.410 156.034 L 161.936 163.911 162.218 175.624 C 162.409 183.548, 162.884 187.464, 163.686 187.730 C 166.555 188.683, 168.134 171.624, 165.916 163.636 C 165.182 160.991, 162.424 157.269, 157.172 151.831 C 149.769 144.168, 149.454 143.964, 148.192 146.023 M 354.660 148.833 L 351.945 151.666 355.007 155.083 L 358.068 158.500 361.027 155.047 L 363.985 151.594 361.305 148.797 C 359.832 147.259, 358.344 146, 358 146 C 357.656 146, 356.153 147.275, 354.660 148.833 M 356.694 150.639 C 355.895 151.438, 356.798 153, 358.059 153 C 358.577 153, 359 152.325, 359 151.500 C 359 149.954, 357.820 149.513, 356.694 150.639 M 343.047 159.704 C 343.007 162.452, 344.933 165.019, 356.554 177.704 C 364.009 185.842, 370.703 192.635, 371.428 192.799 C 372.154 192.964, 373.037 192.346, 373.389 191.427 C 374.105 189.564, 369.666 184.203, 353.166 167 C 343.306 156.720, 343.093 156.567, 343.047 159.704 M 142.364 159.493 C 142.018 160.396, 142.214 161.614, 142.800 162.200 C 144.324 163.724, 147.210 162.331, 146.812 160.265 C 146.369 157.963, 143.165 157.407, 142.364 159.493 M 142.194 177.250 C 135.039 185.088, 129.108 191.950, 129.015 192.500 C 128.922 193.050, 129.570 193.950, 130.455 194.500 C 131.716 195.284, 132.724 194.743, 135.115 192 C 136.792 190.075, 142.660 183.667, 148.153 177.759 C 156.003 169.317, 158.004 166.588, 157.503 165.009 C 157.152 163.904, 156.491 163, 156.034 163 C 155.577 163, 149.349 169.412, 142.194 177.250 M 148.211 182.189 C 146.221 184.179, 146.758 185.338, 152.078 190.538 C 154.871 193.267, 158.357 197.525, 159.824 200 C 162.129 203.887, 162.488 205.590, 162.461 212.500 C 162.443 216.900, 161.924 221.406, 161.306 222.514 C 160.455 224.039, 160.490 224.950, 161.451 226.264 C 163.238 228.707, 163.579 228.509, 165.391 223.980 C 166.417 221.418, 167 216.955, 167 211.676 C 167 201.198, 164.620 196.030, 155.744 187.239 C 150.794 182.335, 149.160 181.240, 148.211 182.189 M 356.639 195.694 C 355.513 196.820, 355.954 198, 357.500 198 C 358.325 198, 359 197.577, 359 197.059 C 359 195.798, 357.438 194.895, 356.639 195.694 M 143 197.941 C 143 198.459, 143.450 199.160, 144 199.500 C 144.550 199.840, 145 199.416, 145 198.559 C 145 197.702, 144.550 197, 144 197 C 143.450 197, 143 197.423, 143 197.941 M 174.807 199.183 C 174.555 199.907, 174.546 205.338, 174.788 211.250 L 175.227 222 185.548 222 C 191.225 222, 196.956 222.413, 198.285 222.918 C 199.613 223.423, 203.511 226.176, 206.947 229.035 C 212.719 233.839, 213.318 234.111, 214.823 232.606 C 216.328 231.101, 216.149 230.707, 212.476 227.429 C 203.160 219.116, 201.721 218.537, 189.421 218.147 L 178.191 217.790 177.846 208.944 C 177.527 200.784, 175.980 195.813, 174.807 199.183 M 383.309 199.091 C 382.522 199.878, 382.880 201.337, 384.597 204.341 L 386.976 208.500 386.984 248 C 386.992 285.977, 386.914 287.629, 384.957 290.839 C 383.075 293.925, 383.033 298, 384.883 298 C 385.295 298, 386.727 296.087, 388.066 293.750 L 390.500 289.500 390.829 251 C 391.171 210.915, 390.705 204.662, 387.046 200.250 C 384.900 197.663, 384.776 197.624, 383.309 199.091 M 113.965 202.250 C 112.861 204.037, 111.725 206.400, 111.440 207.500 C 111.155 208.600, 111.052 227.725, 111.211 250 L 111.500 290.500 113.882 294.332 C 116 297.738, 116.431 297.997, 117.765 296.664 C 119.098 295.331, 119.028 294.781, 117.132 291.714 C 115.049 288.343, 115 287.346, 115.004 248.382 C 115.007 210.457, 115.104 208.341, 116.979 205.267 C 118.862 202.179, 118.811 199, 116.878 199 C 116.379 199, 115.068 200.463, 113.965 202.250 M 324.097 202.150 C 323.494 203.882, 323 208.156, 323 211.649 L 323 218 312.968 218 C 300.086 218, 297.666 218.940, 287.442 227.917 C 284.488 230.510, 284.049 231.355, 285.037 232.545 C 286.794 234.662, 287.298 234.466, 293.168 229.387 C 300.818 222.768, 303.188 222, 315.968 222 L 327 222 327 211.059 C 327 199.753, 326.002 196.688, 324.097 202.150 M 145.200 213.341 C 139.040 219.578, 134 225.443, 134 226.372 C 134 230.304, 137.029 228.737, 144.593 220.895 C 148.942 216.386, 153.738 211.566, 155.250 210.183 C 157.831 207.824, 159.219 202, 157.200 202 C 156.760 202, 151.360 207.103, 145.200 213.341 M 343 204.559 C 343 206.469, 345.783 209.961, 353.958 218.309 C 364.424 228.998, 364.994 229.421, 366.682 227.740 C 368.370 226.058, 367.915 225.445, 356.490 213.990 C 349.913 207.395, 344.187 202, 343.766 202 C 343.345 202, 343 203.152, 343 204.559 M 375.988 208.515 C 375.158 209.515, 374.725 212.028, 374.880 214.949 C 375.223 221.404, 373.438 225.110, 365.637 234.142 C 359.717 240.995, 359.203 241.924, 360.661 243.133 C 362.087 244.317, 363.067 243.630, 368.663 237.516 C 376.709 228.725, 379.449 223.255, 379.437 216 C 379.433 212.975, 378.961 209.684, 378.389 208.687 C 377.430 207.014, 377.244 207.001, 375.988 208.515 M 122.607 209.582 C 122.273 210.452, 122 213.665, 122 216.722 C 122 223.913, 124.419 228.716, 132.501 237.568 C 138.322 243.945, 138.961 244.372, 140.471 242.908 C 141.987 241.438, 141.579 240.695, 135.171 233.267 C 127.643 224.542, 125.487 219.865, 126.276 213.976 C 126.926 209.132, 124.085 205.730, 122.607 209.582 M 219.220 213.006 C 216.866 213.501, 213.163 214.904, 210.992 216.125 C 207.239 218.234, 207.141 218.410, 208.997 219.710 C 210.677 220.887, 211.406 220.830, 214.225 219.303 C 218.983 216.724, 233.982 216.794, 239.818 219.421 C 243.776 221.203, 244.205 221.223, 245.728 219.701 C 247.251 218.178, 246.975 217.878, 241.935 215.577 C 235.774 212.764, 225.763 211.631, 219.220 213.006 M 265.344 212.985 C 259.856 214.145, 254.526 216.936, 248.106 222.010 C 241.058 227.582, 237.289 229, 229.532 229 L 223 229 223 249 L 223 269 229.532 269 C 233.125 269, 237.665 269.669, 239.623 270.487 C 242.361 271.631, 243.665 271.715, 245.281 270.850 L 247.380 269.726 245.079 267.863 C 243.243 266.377, 241.083 266, 234.389 266 C 227.909 266, 226 265.685, 226 264.615 C 226 263.854, 229.227 260.085, 233.172 256.241 L 240.344 249.251 245.106 252.671 L 249.867 256.092 254.748 252.586 L 259.629 249.079 266.937 256.437 C 271.060 260.587, 273.948 264.275, 273.564 264.897 C 273.174 265.528, 269.939 266, 266.006 266 C 257.590 266, 255.430 266.783, 247.943 272.544 C 239.530 279.018, 234.717 280.954, 227 280.968 C 222.249 280.977, 219.137 280.346, 215.432 278.621 C 211.126 276.616, 210.094 276.458, 208.567 277.575 C 206.899 278.794, 207.012 279.038, 210.135 280.957 C 214.694 283.758, 220.402 285.208, 227 285.240 C 234.744 285.278, 239.719 283.659, 246.935 278.755 C 259.043 270.527, 262.682 269, 270.179 269 L 277 269 277 249 L 277 229 270.034 229 C 265.604 229, 261.799 228.395, 259.582 227.338 C 256.664 225.946, 255.836 225.892, 254.498 227.002 C 253.039 228.212, 253.038 228.467, 254.484 229.914 C 255.632 231.063, 258.542 231.596, 265.035 231.849 C 271.224 232.091, 274 232.576, 274 233.417 C 274 234.535, 252.911 250.402, 250.409 251.167 C 249.810 251.350, 244.860 248.386, 239.410 244.581 C 227.704 236.408, 224.876 234.009, 225.590 232.855 C 225.880 232.385, 229.489 232, 233.609 232 C 242.105 232, 243.862 231.295, 253.443 224.043 C 257.053 221.311, 261.917 218.559, 264.253 217.927 C 270.359 216.276, 282.023 217.226, 286.249 219.719 C 288.665 221.145, 290.186 221.475, 291.346 220.826 C 294.021 219.329, 293.310 218.297, 287.750 215.605 C 281.841 212.744, 271.954 211.588, 265.344 212.985 M 148.025 221.470 C 146.563 223.232, 150.176 227.888, 162.256 239.807 C 168.607 246.073, 169.839 246.899, 170.910 245.609 C 172.611 243.559, 171.959 242.621, 161.180 231.631 C 149.117 219.330, 149.534 219.652, 148.025 221.470 M 340.143 231.443 C 329.841 241.933, 328.981 243.095, 330.045 245.084 C 331.154 247.156, 331.694 246.775, 341.671 236.879 C 353.669 224.978, 354.813 223.384, 352.799 221.371 C 351.605 220.176, 349.779 221.630, 340.143 231.443 M 178.050 242.606 C 163.995 256.309, 162.170 258.450, 163.089 260.166 C 163.665 261.242, 164.530 261.982, 165.013 261.811 C 165.496 261.640, 173.359 254.113, 182.487 245.084 C 198.452 229.292, 200.022 227.075, 195.278 227.015 C 194.607 227.007, 186.854 234.023, 178.050 242.606 M 303 227.989 C 301.790 228.762, 302.855 230.152, 308.500 235.170 C 312.350 238.593, 320.211 246.027, 325.969 251.692 C 335.401 260.971, 336.590 261.837, 337.969 260.441 C 339.347 259.045, 337.888 257.302, 323.329 242.945 C 314.435 234.175, 306.560 227.007, 305.829 227.015 C 305.098 227.024, 303.825 227.462, 303 227.989 M 168.675 230.658 C 167.058 232.275, 170.563 234, 175.467 234 C 179.420 234, 181.130 233.514, 182.500 232 C 184.295 230.017, 184.247 230, 176.822 230 C 172.703 230, 169.037 230.296, 168.675 230.658 M 318 230.800 C 318 232.800, 320.811 234, 325.500 234 C 330.189 234, 333 232.800, 333 230.800 C 333 230.360, 329.625 230, 325.500 230 C 321.375 230, 318 230.360, 318 230.800 M 123.685 238.534 C 121.588 242.932, 121.492 252.129, 123.499 256.349 C 125.062 259.637, 126.349 261.262, 134.315 270.010 C 138.764 274.896, 139.254 275.174, 140.759 273.670 C 142.569 271.860, 142.535 271.807, 133.320 262 C 126.468 254.707, 124.595 248.299, 127.372 241.653 C 128.466 239.034, 128.494 238.029, 127.511 236.685 C 125.831 234.386, 125.613 234.492, 123.685 238.534 M 142.465 245.512 C 133.303 255.406, 132.775 256.203, 134.339 257.768 C 135.904 259.333, 136.163 259.281, 138.315 256.971 C 139.582 255.612, 144.084 250.862, 148.321 246.416 C 155.759 238.610, 155.959 238.273, 154.144 236.631 C 152.343 235, 151.857 235.370, 142.465 245.512 M 346.605 236.586 C 345.742 238.836, 346.467 239.824, 356.426 249.981 C 364.975 258.699, 367.170 260.034, 367.781 256.884 C 368.055 255.475, 349.538 235, 347.989 235 C 347.563 235, 346.940 235.714, 346.605 236.586 M 374.017 236.479 C 373.087 237.600, 373.058 238.726, 373.895 241.128 C 376.734 249.272, 375.075 254.018, 365.795 264.295 C 359.139 271.666, 358.814 272.241, 360.412 273.820 C 362.008 275.396, 362.359 275.229, 366.091 271.127 C 377.794 258.259, 380.602 252.777, 379.464 245.013 C 378.881 241.037, 376.550 235, 375.597 235 C 375.403 235, 374.692 235.666, 374.017 236.479 M 195.715 241.436 C 191.597 246.363, 191.926 248.403, 196.181 244.327 L 199 241.626 199 250.813 C 199 256.271, 199.406 260, 200 260 C 200.598 260, 201 256.101, 201 250.304 L 201 240.608 204.485 243.985 C 209.070 248.429, 210.366 247.012, 205.932 242.403 C 200.363 236.615, 199.791 236.561, 195.715 241.436 M 292.639 237.694 C 291.433 238.901, 291.908 260.197, 293.133 259.789 C 293.794 259.569, 294.376 256.534, 294.532 252.492 C 294.783 245.970, 295.004 245.384, 298.399 242.273 C 300.380 240.458, 302 238.754, 302 238.487 C 302 237.269, 299.416 238.200, 297.314 240.174 L 295 242.349 295 240.233 C 295 238, 293.716 236.618, 292.639 237.694 M 226 249.063 L 226 258.125 231.487 253.313 C 234.505 250.666, 236.980 248.201, 236.987 247.835 C 237.001 247.102, 227.601 240, 226.616 240 C 226.277 240, 226 244.078, 226 249.063 M 266.818 243.887 L 262.135 247.702 267.568 253.067 L 273 258.432 273 249.216 C 273 244.147, 272.663 240.016, 272.250 240.036 C 271.837 240.055, 269.393 241.788, 266.818 243.887 M 189.597 247.844 C 189.251 248.404, 189.455 249.163, 190.050 249.531 C 191.588 250.481, 192.580 249.180, 191.296 247.896 C 190.578 247.178, 190.019 247.161, 189.597 247.844 M 215 248.417 C 215 249.287, 215.713 250, 216.583 250 C 218.349 250, 218.042 247.847, 216.188 247.229 C 215.534 247.011, 215 247.546, 215 248.417 M 282 248.500 C 282 249.325, 282.675 250, 283.500 250 C 284.325 250, 285 249.325, 285 248.500 C 285 247.675, 284.325 247, 283.500 247 C 282.675 247, 282 247.675, 282 248.500 M 309.553 247.915 C 309.231 248.436, 309.394 249.125, 309.915 249.447 C 310.436 249.769, 311.125 249.606, 311.447 249.085 C 311.769 248.564, 311.606 247.875, 311.085 247.553 C 310.564 247.231, 309.875 247.394, 309.553 247.915 M 148.250 250.662 C 146.135 251.516, 146.799 252.940, 152.530 259.841 C 160.451 269.380, 162 273.062, 162 282.356 C 162 288.104, 161.489 291.082, 160.002 293.997 C 158.903 296.151, 151.946 304.345, 144.542 312.207 C 132.587 324.900, 131.078 326.892, 131.060 330 L 131.040 333.500 136.276 328 C 165.877 296.903, 166.514 295.943, 166.461 282.500 C 166.433 275.388, 165.959 272.472, 164.202 268.598 C 162.066 263.891, 151.452 249.916, 150.137 250.079 C 149.786 250.122, 148.938 250.385, 148.250 250.662 M 346.350 255.316 C 343.683 258.239, 340.150 263.077, 338.500 266.066 C 335.678 271.178, 335.500 272.152, 335.500 282.500 C 335.500 295.293, 336.381 297.376, 346.284 307.989 C 351.071 313.119, 352.321 313.978, 353.534 312.972 C 354.340 312.303, 354.983 311.473, 354.962 311.128 C 354.941 310.782, 352.434 307.800, 349.390 304.500 C 341.721 296.184, 339 290.573, 339 283.071 C 339 274.562, 341.892 267.756, 348.978 259.587 C 353.625 254.229, 354.725 252.373, 353.865 251.337 C 352.163 249.286, 351.562 249.604, 346.350 255.316 M 178.070 253.416 C 177.117 254.564, 178.275 256.173, 184.197 261.921 C 191.517 269.027, 194.567 270.764, 197.647 269.582 C 198.974 269.073, 198.433 268.217, 194.900 265.236 C 192.480 263.194, 188.207 259.381, 185.403 256.762 C 182.600 254.143, 180.068 252, 179.776 252 C 179.484 252, 178.716 252.637, 178.070 253.416 M 310.754 260.824 C 301.273 269.255, 301.081 269.511, 303.703 270.213 C 306.767 271.032, 308.772 269.721, 318.388 260.615 C 323.359 255.908, 324.080 254.802, 323.016 253.519 C 322.323 252.684, 321.473 252.035, 321.128 252.078 C 320.782 252.121, 316.114 256.057, 310.754 260.824 M 172.250 264.662 C 169.493 265.775, 171.261 267, 175.622 267 C 179.618 267, 180.076 266.797, 179 265.500 C 177.782 264.033, 174.744 263.656, 172.250 264.662 M 208 267.646 C 202.138 273.575, 197.983 274.953, 185.892 274.978 L 175.283 275 174.731 286.250 C 174.427 292.438, 174.571 297.911, 175.052 298.413 C 176.572 300.001, 178 294.201, 178 286.435 L 178 279 188.250 278.978 C 200.129 278.953, 203.769 277.695, 211.280 271.023 C 215.094 267.636, 215.827 266.496, 214.908 265.389 C 213.184 263.312, 211.857 263.746, 208 267.646 M 285.007 264.974 C 283.776 265.753, 284.209 266.630, 287.482 269.982 C 289.665 272.217, 293.687 275.160, 296.422 276.523 C 300.790 278.699, 302.703 279, 312.196 279 L 323 279 323.006 285.250 C 323.009 288.688, 323.506 293.284, 324.112 295.465 C 325.033 298.784, 325.399 299.176, 326.356 297.872 C 327.123 296.827, 327.335 292.885, 327 285.907 L 326.500 275.500 314 275 C 300.376 274.455, 297.735 273.522, 291.563 267.070 C 288.440 263.806, 287.388 263.469, 285.007 264.974 M 322.042 265.449 C 320.910 266.813, 321.323 267, 325.461 267 C 328.778 267, 330.046 266.631, 329.756 265.750 C 329.135 263.857, 323.544 263.639, 322.042 265.449 M 123.527 268.281 C 121.806 272.400, 121.483 284.681, 123.034 287 C 124.768 289.590, 126.895 285.635, 126.271 280.982 C 125.982 278.829, 126.277 274.955, 126.927 272.374 C 127.927 268.406, 127.873 267.445, 126.582 266.153 C 125.212 264.783, 124.897 265.003, 123.527 268.281 M 374.001 266.499 C 373.024 267.676, 373.014 268.620, 373.956 270.893 C 374.615 272.485, 375.037 276.324, 374.894 279.425 C 374.702 283.559, 375.066 285.494, 376.258 286.687 C 377.759 288.187, 377.945 288.089, 378.687 285.406 C 379.985 280.714, 379.427 271.726, 377.621 268.234 C 375.698 264.515, 375.662 264.498, 374.001 266.499 M 136.742 282.750 C 118.563 301.159, 116.179 303.839, 113.391 309 C 111.622 312.274, 111.465 316.048, 110.961 367.500 C 110.664 397.750, 110.050 423.511, 109.595 424.746 C 108.770 426.989, 108.775 426.991, 113.010 425.496 C 119.215 423.307, 171.413 423.310, 176.654 425.500 C 181.185 427.393, 181.399 427.379, 180.357 425.250 C 179.886 424.288, 179.275 398.750, 179 368.500 L 178.500 313.500 175.700 308.500 C 174.160 305.750, 171.743 302.174, 170.330 300.554 C 167.921 297.793, 167.677 297.721, 166.448 299.402 C 165.300 300.972, 165.682 301.866, 169.519 306.576 C 171.929 309.535, 174.157 313.429, 174.469 315.228 C 174.781 317.028, 175.140 341.450, 175.268 369.500 L 175.500 420.500 148.378 420.168 C 133.460 419.985, 119.735 420.255, 117.878 420.769 L 114.500 421.702 114.744 369.601 C 114.878 340.945, 115.233 316.057, 115.531 314.293 C 116.132 310.746, 123.169 302.816, 143.838 282.391 C 154.992 271.370, 156.069 269.997, 155.053 268.099 C 154.435 266.945, 153.784 266, 153.606 266 C 153.428 266, 145.839 273.538, 136.742 282.750 M 346.357 267.750 C 345.380 269.260, 347.861 272.179, 364.413 289 C 374.966 299.725, 384.351 310.111, 385.267 312.079 C 386.742 315.251, 386.964 321.696, 387.216 368.688 L 387.500 421.718 384.507 420.859 C 380.608 419.740, 333.391 419.740, 329.493 420.859 L 326.500 421.718 326.791 368.229 C 327.110 309.796, 326.798 312.924, 333.105 304.897 C 335.487 301.865, 335.737 301.023, 334.685 299.584 C 333.556 298.039, 333.121 298.266, 330.167 301.942 C 322.749 311.173, 323.046 308.448, 323.022 367.282 C 323.004 411.075, 322.753 420.655, 321.551 423.532 C 320.754 425.439, 320.249 427, 320.429 427 C 320.609 427, 322.371 426.325, 324.346 425.500 C 329.602 423.304, 384.383 423.297, 389.636 425.492 C 392.971 426.886, 393.151 426.869, 392.354 425.242 C 391.884 424.284, 391.275 398.750, 391 368.500 C 390.474 310.592, 390.566 311.687, 385.634 305.121 C 382.752 301.283, 348.824 266, 348.017 266 C 347.727 266, 346.980 266.788, 346.357 267.750 M 254.640 277.182 C 252.336 278.471, 253.465 279.876, 258.649 282.169 C 265.035 284.994, 273.225 286.095, 279.290 284.945 C 284.849 283.891, 293 280.343, 293 278.978 C 293 277.077, 288.988 277.076, 284.555 278.976 C 277.809 281.868, 268.076 281.714, 261.411 278.611 C 257.795 276.927, 255.834 276.513, 254.640 277.182 M 148.480 281.638 C 146.694 282.945, 146.853 283.282, 151.465 287.964 C 154.144 290.684, 156.711 292.679, 157.168 292.396 C 159.180 291.153, 157.780 287.118, 154.183 283.790 C 150.770 280.632, 150.167 280.404, 148.480 281.638 M 347.152 284.201 C 342.801 288.595, 342.417 289.543, 343.992 292 C 344.777 293.225, 345.781 292.582, 349.461 288.500 C 354.466 282.948, 354.567 282.715, 352.652 281.126 C 351.603 280.256, 350.383 280.938, 347.152 284.201 M 142.364 295.493 C 142.018 296.396, 142.214 297.614, 142.800 298.200 C 144.324 299.724, 147.210 298.331, 146.812 296.265 C 146.369 293.963, 143.165 293.407, 142.364 295.493 M 355.364 295.493 C 355.018 296.396, 355.214 297.614, 355.800 298.200 C 357.324 299.724, 360.210 298.331, 359.812 296.265 C 359.369 293.963, 356.165 293.407, 355.364 295.493 M 129.332 302.577 C 128.933 303.616, 130.374 305.826, 133.556 309.057 C 138.125 313.696, 138.485 313.871, 140.225 312.297 C 141.989 310.700, 141.872 310.439, 137.319 305.816 C 132.344 300.765, 130.339 299.952, 129.332 302.577 M 356.148 314.461 C 344.699 326.183, 343 328.346, 343 331.199 C 343 334.380, 343.433 334.043, 358 319.500 C 366.250 311.264, 373 304.005, 373 303.369 C 373 302.445, 370.906 301, 369.566 301 C 369.417 301, 363.379 307.058, 356.148 314.461 M 162.683 308.650 C 162.308 309.026, 162 315.259, 162 322.500 L 162 335.667 154.352 343.900 C 147.123 351.681, 146.799 352.225, 148.441 353.816 C 150.079 355.403, 150.606 355.040, 157.609 347.500 C 165.968 338.500, 166.997 336.027, 166.971 325 C 166.945 314.442, 164.856 306.477, 162.683 308.650 M 337 309.490 C 334.911 312.011, 334.259 334.711, 336.170 338.346 C 336.902 339.737, 340.882 344.390, 345.015 348.687 C 361.330 365.649, 372.979 378.814, 373.965 381.407 C 374.534 382.905, 375 389.501, 375 396.065 L 375 408 371.711 408 C 369.903 408, 366.763 407.154, 364.735 406.120 C 361.689 404.567, 360.853 404.472, 359.937 405.576 C 357.328 408.719, 363.983 412, 372.968 412 L 379 412 379 396.968 C 379 386.069, 378.600 380.977, 377.544 378.451 C 376.743 376.534, 372.611 371.261, 368.363 366.733 C 361.274 359.178, 352.027 349.304, 343.049 339.705 L 339.500 335.909 339 321.794 C 338.549 309.071, 338.352 307.858, 337 309.490 M 124.050 313.906 C 122.910 316.036, 122.515 372, 123.640 372 C 123.992 372, 124.877 371.212, 125.608 370.250 C 126.637 368.895, 126.944 362.250, 126.968 340.809 C 126.999 314.028, 126.491 309.345, 124.050 313.906 M 375.500 313.141 C 374.990 314.468, 374.433 322.130, 374.116 332.179 C 374.052 334.202, 373.438 336.452, 372.750 337.179 C 372.063 337.907, 368.604 341.552, 365.064 345.279 C 358.946 351.723, 358.715 352.142, 360.382 353.778 C 362.046 355.412, 362.491 355.117, 369.089 348 C 378.977 337.335, 379.239 336.703, 378.838 324.428 C 378.630 318.069, 378.032 313.628, 377.283 312.880 C 376.328 311.927, 375.944 311.983, 375.500 313.141 M 148.250 319.695 C 145.805 320.618, 147.152 323.574, 152.469 328.955 L 157.859 334.409 158.564 331.601 C 159.180 329.146, 158.654 328.190, 154.384 324.008 C 151.698 321.376, 148.938 319.435, 148.250 319.695 M 361.005 320.494 C 359.617 322.167, 360.027 322.832, 366.650 329.632 C 369.963 333.035, 371.001 333.023, 370.999 329.583 C 370.998 327.537, 368.531 324.232, 364.385 320.725 C 362.503 319.133, 362.155 319.109, 361.005 320.494 M 142.174 335.315 L 139.989 337.641 142.315 339.826 L 144.641 342.011 146.826 339.685 L 149.011 337.359 146.685 335.174 L 144.359 332.989 142.174 335.315 M 354.491 335.010 C 352.724 336.962, 352.739 337.093, 355.008 339.509 C 357.199 341.840, 357.461 341.893, 359.173 340.344 C 361.483 338.253, 361.483 336.747, 359.171 334.655 C 356.862 332.565, 356.692 332.578, 354.491 335.010 M 130.902 343.343 C 131.345 345.868, 135.262 351.061, 146 363.362 C 154.516 373.117, 161.030 381.496, 161.783 383.665 C 162.589 385.987, 162.961 391.100, 162.783 397.430 L 162.500 407.500 159.686 407.823 C 158.138 408, 155.106 407.272, 152.949 406.205 C 149.731 404.612, 148.829 404.502, 147.927 405.588 C 147.322 406.316, 147.084 407.327, 147.398 407.835 C 148.749 410.021, 155.163 412, 160.901 412 L 167 412 167 399.125 C 167 382.854, 166.706 381.513, 161.657 374.778 C 155.635 366.743, 132.725 340.914, 131.003 340.217 C 130.619 340.062, 130.573 341.469, 130.902 343.343 M 376.216 345.026 C 374.455 347.845, 374.560 368.390, 376.342 369.869 C 377.080 370.481, 377.980 370.687, 378.342 370.325 C 379.266 369.401, 379.137 345.764, 378.200 344.290 C 377.645 343.416, 377.093 343.621, 376.216 345.026 M 163.200 347.200 C 162.422 347.978, 162 352.017, 162 358.676 C 162 366.951, 162.364 369.550, 163.870 372.027 C 165.708 375.048, 165.751 375.062, 166.356 372.801 C 167.156 369.816, 167.157 354.583, 166.358 349.750 C 165.698 345.757, 165.115 345.285, 163.200 347.200 M 335.667 346.667 C 334.711 347.622, 334.840 371, 335.800 371 C 338.213 371, 339 368.018, 339 358.882 C 339 347.327, 338.144 344.190, 335.667 346.667 M 344.501 367.219 C 340.806 371.223, 337.156 375.948, 336.391 377.718 C 335.401 380.009, 335 385.410, 335 396.468 L 335 412 341.266 412 C 348.676 412, 353.443 409.845, 356.750 405.001 C 358.580 402.319, 359 400.333, 359 394.353 L 359 387.002 363.111 390.992 C 367.038 394.803, 369 395.348, 369 392.628 C 369 391.938, 366.771 389.467, 364.046 387.137 C 359.200 382.993, 359.086 382.767, 358.796 376.701 C 358.571 371.987, 358.140 370.500, 357 370.500 C 355.885 370.500, 355.423 371.911, 355.200 376 C 354.918 381.162, 354.564 381.840, 349.439 387.040 C 345.151 391.390, 344.240 392.840, 345.196 393.796 C 346.151 394.751, 347.334 394.107, 350.706 390.798 L 355 386.584 355 393.891 C 355 400.700, 354.798 401.386, 352.036 403.967 C 349.265 406.555, 345.267 408, 340.875 408 C 339.135 408, 339 407.037, 339 394.650 C 339 381.507, 339.045 381.240, 341.882 377.400 C 343.467 375.255, 346.842 371.494, 349.382 369.042 C 354.284 364.310, 354.839 362.941, 352.610 361.091 C 351.494 360.165, 349.892 361.376, 344.501 367.219 M 133.041 367.615 C 122.875 378.483, 123.008 378.103, 123.004 396.250 L 123 412 129.250 411.998 C 136.773 411.997, 141.544 409.871, 144.730 405.102 C 146.590 402.319, 147.002 400.330, 147.011 394.102 L 147.022 386.500 151.093 390.758 C 154.887 394.724, 157 395.438, 157 392.751 C 157 392.130, 154.776 389.565, 152.057 387.053 C 147.313 382.668, 147.102 382.244, 146.807 376.492 C 146.575 371.969, 146.132 370.500, 145 370.500 C 143.885 370.500, 143.423 371.911, 143.200 376 C 142.918 381.162, 142.564 381.840, 137.439 387.040 C 133.151 391.390, 132.240 392.840, 133.196 393.796 C 134.151 394.751, 135.334 394.107, 138.706 390.798 L 143 386.584 143 393.891 C 143 400.700, 142.798 401.386, 140.036 403.967 C 137.265 406.555, 133.267 408, 128.875 408 C 127.145 408, 127 407.066, 127 395.950 C 127 381.937, 127.288 381.151, 136.029 371.304 C 141.720 364.892, 142.922 362.139, 140.397 361.298 C 139.790 361.096, 136.480 363.939, 133.041 367.615" stroke="none" fill="black" fill-rule="evenodd"/>
</svg>
